<svg width="72" height="24" viewBox="0 0 72 24" fill="none" xmlns="http://www.w3.org/2000/svg">
<g clip-path="url(#clip0_24_116)">
<mask id="mask0_24_116" style="mask-type:luminance" maskUnits="userSpaceOnUse" x="0" y="0" width="72" height="24">
<path d="M72 0H0V24H72V0Z" fill="white"/>
</mask>
<g mask="url(#mask0_24_116)">
<path d="M51.1647 15.9559L57.5032 9.61625C58.7328 8.38575 58.7328 6.39253 57.5032 5.16202C56.2735 3.93151 54.2794 3.93151 53.0497 5.16202L46.7113 11.5017C45.4816 12.7322 45.4816 14.7254 46.7113 15.9559C47.9409 17.1864 49.9351 17.1864 51.1647 15.9559Z" fill="#FF8E05"/>
<path d="M39.4707 9.85214L52.5925 22.9748C53.8647 24.2481 55.9296 24.2481 57.2038 22.9748C58.4779 21.7016 58.4779 19.6372 57.2038 18.364L44.0799 5.24129C42.8058 3.96807 40.7429 3.96807 39.4687 5.24129C38.1966 6.51451 38.1966 8.57892 39.4687 9.85214H39.4707Z" fill="url(#paint0_linear_24_116)"/>
<path d="M39.4747 18.3641L48.3371 9.49829L52.9484 14.1091L44.0859 22.9749C42.8117 24.2502 40.7508 24.2502 39.4747 22.9749C38.2005 21.6996 38.2005 19.6393 39.4747 18.3641Z" fill="url(#paint1_linear_24_116)"/>
<path d="M5.24225 12.5715V23.5587H0V4.55392H4.99551V7.90782H5.21798C5.63663 6.80341 6.33843 5.9268 7.32135 5.27799C8.30629 4.63121 9.49955 4.30579 10.9011 4.30579C12.2137 4.30579 13.3584 4.5946 14.3333 5.17223C15.3101 5.74985 16.0685 6.57358 16.6085 7.64138C17.1506 8.70918 17.4216 9.9824 17.4216 11.459V23.5607H12.1793V12.3987C12.1874 11.2353 11.8921 10.3261 11.2935 9.67121C10.6948 9.01629 9.86966 8.6868 8.82 8.6868C8.11416 8.6868 7.49326 8.83935 6.95528 9.14443C6.4173 9.44951 5.99865 9.8929 5.69933 10.4746C5.4 11.0563 5.24629 11.756 5.2382 12.5715H5.24225Z" fill="white"/>
<path d="M28.4259 23.9308C26.4823 23.9308 24.8098 23.5321 23.4122 22.7369C22.0127 21.9416 20.9367 20.8108 20.1823 19.3464C19.428 17.882 19.0498 16.1471 19.0498 14.1437C19.0498 12.1403 19.428 10.4725 20.1823 8.99587C20.9367 7.51926 22.0005 6.36808 23.3758 5.54435C24.7491 4.71859 26.363 4.30774 28.2176 4.30774C29.4655 4.30774 30.6264 4.50706 31.7064 4.90774C32.7844 5.30842 33.7289 5.90842 34.5358 6.70774C35.3448 7.50706 35.9738 8.51181 36.4248 9.71994C36.8758 10.9281 37.1023 12.3416 37.1023 13.9586V15.4067H21.143V12.1403H32.1675C32.1675 11.3816 32.0037 10.7084 31.6761 10.1227C31.3484 9.53689 30.8954 9.07723 30.317 8.74367C29.7385 8.41011 29.0691 8.24333 28.3046 8.24333C27.5401 8.24333 26.8059 8.42638 26.1952 8.79452C25.5844 9.16265 25.1071 9.65282 24.7612 10.2671C24.4174 10.8813 24.2394 11.5647 24.2313 12.3152V15.421C24.2313 16.3606 24.4053 17.1742 24.7552 17.8596C25.103 18.545 25.5985 19.0718 26.2376 19.444C26.8767 19.8162 27.6352 20.0013 28.5129 20.0013C29.0954 20.0013 29.6293 19.9179 30.1127 19.7532C30.5961 19.5884 31.0107 19.3403 31.3545 19.0108C31.6983 18.6813 31.9612 18.2766 32.1412 17.7986L36.9891 18.1199C36.7423 19.2915 36.2408 20.3125 35.4823 21.183C34.7239 22.0535 33.7471 22.7308 32.5538 23.2128C31.3605 23.6949 29.9832 23.9369 28.4259 23.9369V23.9308Z" fill="white"/>
<path d="M71.6481 4.5539V8.5139H60.2656V4.5539H71.6481ZM62.8503 0H68.0926V17.7193C68.0926 18.2054 68.1654 18.5837 68.313 18.8522C68.4607 19.1207 68.667 19.3078 68.9339 19.4156C69.2009 19.5234 69.5103 19.5763 69.8623 19.5763C70.109 19.5763 70.3537 19.5539 70.6005 19.5092C70.8472 19.4644 71.0353 19.4278 71.1667 19.4034L71.9919 23.3268C71.729 23.4102 71.3609 23.5058 70.8836 23.6176C70.4083 23.7295 69.8299 23.7966 69.1483 23.821C67.8843 23.8698 66.78 23.701 65.8315 23.3146C64.8829 22.9281 64.1467 22.3241 63.6229 21.5085C63.0971 20.6929 62.8402 19.6617 62.8483 18.4149V0H62.8503Z" fill="white"/>
</g>
</g>
<defs>
<linearGradient id="paint0_linear_24_116" x1="48.8934" y1="24.0508" x2="48.018" y2="8.62829" gradientUnits="userSpaceOnUse">
<stop stop-color="#FF8E05"/>
<stop offset="1" stop-color="#CA1D00"/>
</linearGradient>
<linearGradient id="paint1_linear_24_116" x1="38.1236" y1="18.7485" x2="53.0139" y2="14.0439" gradientUnits="userSpaceOnUse">
<stop stop-color="#FF8B00"/>
<stop offset="1" stop-color="#FFD200"/>
</linearGradient>
<clipPath id="clip0_24_116">
<rect width="72" height="24" fill="white"/>
</clipPath>
</defs>
</svg>
