<svg width="72" height="24" viewBox="0 0 72 24" fill="none" xmlns="http://www.w3.org/2000/svg">
<g clip-path="url(#clip0_16_10)">
<path d="M51.1645 15.9559L57.503 9.61625C58.7326 8.38575 58.7326 6.39253 57.503 5.16202C56.2733 3.93151 54.2792 3.93151 53.0495 5.16202L46.7111 11.5017C45.4814 12.7322 45.4814 14.7254 46.7111 15.9559C47.9407 17.1864 49.9349 17.1864 51.1645 15.9559Z" fill="#FF8E05"/>
<path d="M39.4705 9.85214L52.5923 22.9748C53.8645 24.2481 55.9294 24.2481 57.2036 22.9748C58.4777 21.7016 58.4777 19.6372 57.2036 18.364L44.0797 5.24129C42.8056 3.96807 40.7427 3.96807 39.4685 5.24129C38.1964 6.51451 38.1964 8.57892 39.4685 9.85214H39.4705Z" fill="url(#paint0_linear_16_10)"/>
<path d="M39.4747 18.3641L48.3371 9.49829L52.9484 14.1091L44.0859 22.9749C42.8117 24.2502 40.7508 24.2502 39.4747 22.9749C38.2005 21.6996 38.2005 19.6393 39.4747 18.3641Z" fill="url(#paint1_linear_16_10)"/>
<path d="M5.24225 12.5715V23.5587H0V4.55392H4.99551V7.90782H5.21798C5.63663 6.80341 6.33843 5.9268 7.32135 5.27799C8.30629 4.63121 9.49955 4.30579 10.9011 4.30579C12.2137 4.30579 13.3584 4.5946 14.3333 5.17223C15.3101 5.74985 16.0685 6.57358 16.6085 7.64138C17.1506 8.70918 17.4216 9.9824 17.4216 11.459V23.5607H12.1793V12.3987C12.1874 11.2353 11.8921 10.3261 11.2935 9.67121C10.6948 9.01629 9.86966 8.6868 8.82 8.6868C8.11416 8.6868 7.49326 8.83935 6.95528 9.14443C6.4173 9.44951 5.99865 9.8929 5.69933 10.4746C5.4 11.0563 5.24629 11.756 5.2382 12.5715H5.24225Z" fill="black"/>
<path d="M28.4257 23.9308C26.4821 23.9308 24.8096 23.5321 23.412 22.7369C22.0125 21.9416 20.9365 20.8108 20.1821 19.3464C19.4278 17.882 19.0496 16.1471 19.0496 14.1437C19.0496 12.1403 19.4278 10.4725 20.1821 8.99587C20.9365 7.51926 22.0003 6.36808 23.3756 5.54435C24.7489 4.71859 26.3628 4.30774 28.2174 4.30774C29.4653 4.30774 30.6262 4.50706 31.7062 4.90774C32.7842 5.30842 33.7287 5.90842 34.5356 6.70774C35.3446 7.50706 35.9736 8.51181 36.4246 9.71994C36.8756 10.9281 37.1021 12.3416 37.1021 13.9586V15.4067H21.1428V12.1403H32.1673C32.1673 11.3816 32.0035 10.7084 31.6759 10.1227C31.3482 9.53689 30.8952 9.07723 30.3168 8.74367C29.7383 8.41011 29.0689 8.24333 28.3044 8.24333C27.5399 8.24333 26.8057 8.42638 26.195 8.79452C25.5842 9.16265 25.1069 9.65282 24.761 10.2671C24.4172 10.8813 24.2392 11.5647 24.2311 12.3152V15.421C24.2311 16.3606 24.4051 17.1742 24.755 17.8596C25.1028 18.545 25.5983 19.0718 26.2374 19.444C26.8765 19.8162 27.635 20.0013 28.5127 20.0013C29.0952 20.0013 29.6291 19.9179 30.1125 19.7532C30.5959 19.5884 31.0105 19.3403 31.3543 19.0108C31.6981 18.6813 31.961 18.2766 32.141 17.7986L36.9889 18.1199C36.7421 19.2915 36.2406 20.3125 35.4821 21.183C34.7237 22.0535 33.7469 22.7308 32.5536 23.2128C31.3603 23.6949 29.983 23.9369 28.4257 23.9369V23.9308Z" fill="black"/>
<path d="M71.6481 4.5539V8.5139H60.2656V4.5539H71.6481ZM62.8503 0H68.0926V17.7193C68.0926 18.2054 68.1654 18.5837 68.313 18.8522C68.4607 19.1207 68.667 19.3078 68.9339 19.4156C69.2009 19.5234 69.5103 19.5763 69.8623 19.5763C70.109 19.5763 70.3537 19.5539 70.6005 19.5092C70.8472 19.4644 71.0353 19.4278 71.1667 19.4034L71.9919 23.3268C71.729 23.4102 71.3609 23.5058 70.8836 23.6176C70.4083 23.7295 69.8299 23.7966 69.1483 23.821C67.8843 23.8698 66.78 23.701 65.8315 23.3146C64.8829 22.9281 64.1467 22.3241 63.6229 21.5085C63.0971 20.6929 62.8402 19.6617 62.8483 18.4149V0H62.8503Z" fill="black"/>
</g>
<defs>
<linearGradient id="paint0_linear_16_10" x1="48.8932" y1="24.0508" x2="48.0178" y2="8.62829" gradientUnits="userSpaceOnUse">
<stop stop-color="#FF8E05"/>
<stop offset="1" stop-color="#CA1D00"/>
</linearGradient>
<linearGradient id="paint1_linear_16_10" x1="38.1236" y1="18.7485" x2="53.0139" y2="14.0439" gradientUnits="userSpaceOnUse">
<stop stop-color="#FF8B00"/>
<stop offset="1" stop-color="#FFD200"/>
</linearGradient>
<clipPath id="clip0_16_10">
<rect width="72" height="24" fill="white"/>
</clipPath>
</defs>
</svg>
