<svg width="310" height="291" viewBox="0 0 310 291" fill="none" xmlns="http://www.w3.org/2000/svg">
<path d="M40.8495 257.03C21.7595 251.45 11.1195 238.73 6.20952 204.93C4.48952 193.05 1.09961 175.81 25.1696 164.6C48.8096 153.59 88.9496 145 119.88 145C167.45 145 174.15 156.69 167.07 190.98C163.98 205.97 161.48 219.18 158 230.02C145.81 268.06 129.2 265.36 82.5096 262.23C76.4196 261.82 71.7596 261.45 66.4896 261L47.1995 283.67C45.0795 286.29 40.8495 284.8 40.8495 281.43V257.04V257.03Z" stroke="white" stroke-width="10" stroke-miterlimit="10"/>
<path d="M102.5 120C112.165 120 120 112.165 120 102.5C120 92.835 112.165 85 102.5 85C92.835 85 85 92.835 85 102.5C85 112.165 92.835 120 102.5 120Z" stroke="white" stroke-width="10" stroke-miterlimit="10"/>
<path d="M237.5 120C247.165 120 255 112.165 255 102.5C255 92.835 247.165 85 237.5 85C227.835 85 220 92.835 220 102.5C220 112.165 227.835 120 237.5 120Z" stroke="white" stroke-width="10" stroke-miterlimit="10"/>
<path d="M170 120C179.665 120 187.5 112.165 187.5 102.5C187.5 92.835 179.665 85 170 85C160.335 85 152.5 92.835 152.5 102.5C152.5 112.165 160.335 120 170 120Z" stroke="white" stroke-width="10" stroke-miterlimit="10"/>
<path d="M164.869 201.73C168.269 201.5 171.769 201.26 175.369 201.02C185.549 200.34 195.019 199.72 203.829 198.95L234.419 236.86C237.959 241.24 245.039 238.74 245.039 233.11V192.33C276.969 183 294.759 161.73 302.959 105.22C305.839 85.36 311.499 56.53 271.249 37.78C231.719 19.37 164.599 5 112.889 5C33.3493 5 22.1392 24.55 33.9792 81.88C39.1492 106.95 43.3293 129.03 49.1393 147.16C50.0293 149.94 50.9392 152.6 51.8592 155.13" stroke="white" stroke-width="10" stroke-miterlimit="10"/>
</svg>
