<svg width="290" height="290" viewBox="0 0 290 290" fill="none" xmlns="http://www.w3.org/2000/svg">
<path d="M155.004 5V25" stroke="black" stroke-width="10" stroke-miterlimit="10" stroke-linecap="round"/>
<path d="M100.045 39.8105L90.0449 22.4805" stroke="black" stroke-width="10" stroke-miterlimit="10" stroke-linecap="round"/>
<path d="M59.8145 80.04L42.4844 70.04" stroke="black" stroke-width="10" stroke-miterlimit="10" stroke-linecap="round"/>
<path d="M219.965 22.4805L209.965 39.8105" stroke="black" stroke-width="10" stroke-miterlimit="10" stroke-linecap="round"/>
<path d="M250.194 80.04L267.524 70.04" stroke="black" stroke-width="10" stroke-miterlimit="10" stroke-linecap="round"/>
<path d="M285.004 135H265.004" stroke="black" stroke-width="10" stroke-miterlimit="10" stroke-linecap="round"/>
<path d="M267.524 199.96L250.194 189.96" stroke="black" stroke-width="10" stroke-miterlimit="10" stroke-linecap="round"/>
<path d="M209.965 230.189L219.965 247.52" stroke="black" stroke-width="10" stroke-miterlimit="10" stroke-linecap="round"/>
<path d="M77.4542 212.55C49.3642 184.46 52.6042 172.69 59.5042 165.78C64.6442 160.64 67.3743 156.34 68.8143 153.17C70.2143 150.1 70.1542 146.61 68.7542 143.54L54.4842 112.39C52.8142 108.58 49.2542 105.97 45.1242 105.48C37.5742 104.58 25.6842 104.31 19.7242 110.27C-10.3858 140.38 7.88423 188.81 54.5342 235.46C101.184 282.11 149.624 300.37 179.724 270.26C185.674 264.31 185.414 252.42 184.514 244.86C184.014 240.73 181.414 237.17 177.604 235.51L146.454 221.24C143.394 219.84 139.894 219.78 136.824 221.18C133.654 222.62 129.354 225.34 124.214 230.49C117.304 237.4 105.534 240.63 77.4441 212.54L77.4542 212.55Z" stroke="black" stroke-width="10" stroke-miterlimit="10"/>
<path d="M204.824 185V85L164.824 155H219.824" stroke="black" stroke-width="10" stroke-linecap="round" stroke-linejoin="round"/>
<path d="M99.8242 110C99.8242 96.19 111.014 85 124.824 85C138.634 85 149.824 96.19 149.824 110C149.824 136.46 99.8242 156.67 99.8242 185H149.824" stroke="black" stroke-width="10" stroke-linecap="round" stroke-linejoin="round"/>
</svg>
