<svg width="601" height="148" viewBox="0 0 601 148" fill="none" xmlns="http://www.w3.org/2000/svg">
<path d="M157.719 52.2H218.419V63.4999H194.519V127.2H181.419V63.4999H157.619L157.719 52.2ZM215.819 72.8999H227.019V83.3999H227.219C227.619 81.8999 228.319 80.5 229.319 79.1C230.319 77.7 231.519 76.3999 233.019 75.2999C234.419 74.0999 236.019 73.1999 237.819 72.4999C239.519 71.7999 241.319 71.3999 243.119 71.3999C244.519 71.3999 245.519 71.4999 246.019 71.4999C246.519 71.5999 247.119 71.7 247.619 71.7V83.2C246.819 83 245.919 82.8999 245.019 82.7999C244.119 82.6999 243.319 82.6 242.419 82.6C240.419 82.6 238.519 82.9999 236.719 83.7999C234.919 84.5999 233.419 85.7999 232.019 87.2999C230.719 88.8999 229.619 90.8 228.819 93.1C228.019 95.4 227.619 98.1 227.619 101.1V126.9H215.619L215.819 72.8999ZM302.619 127.2H290.819V119.6H290.619C289.119 122.4 286.919 124.5 284.019 126.2C281.119 127.9 278.119 128.7 275.119 128.7C268.019 128.7 262.819 127 259.619 123.4C256.419 119.9 254.819 114.5 254.819 107.4V72.8999H266.819V106.2C266.819 111 267.719 114.4 269.619 116.3C271.419 118.3 274.019 119.3 277.319 119.3C279.819 119.3 281.919 118.9 283.619 118.1C285.319 117.3 286.719 116.3 287.719 115C288.819 113.7 289.519 112.1 290.019 110.3C290.519 108.5 290.719 106.5 290.719 104.4V72.8999H302.719V127.2H302.619ZM323.019 109.8C323.419 113.3 324.719 115.7 327.019 117.2C329.319 118.6 332.119 119.3 335.319 119.3C336.419 119.3 337.719 119.2 339.119 119C340.519 118.8 341.919 118.5 343.119 118C344.419 117.5 345.419 116.8 346.219 115.8C347.019 114.8 347.419 113.6 347.319 112.1C347.219 110.6 346.719 109.3 345.619 108.3C344.519 107.3 343.219 106.6 341.619 105.9C340.019 105.3 338.119 104.8 336.019 104.4C333.919 104 331.819 103.5 329.619 103C327.419 102.5 325.219 101.9 323.119 101.2C321.019 100.5 319.219 99.5999 317.519 98.2999C315.919 97.0999 314.519 95.6 313.619 93.7C312.619 91.8 312.119 89.5999 312.119 86.7999C312.119 83.7999 312.819 81.3999 314.319 79.3999C315.719 77.3999 317.619 75.8 319.819 74.6C322.019 73.4 324.519 72.4999 327.219 71.9999C329.919 71.4999 332.519 71.2999 334.919 71.2999C337.719 71.2999 340.419 71.6 342.919 72.2C345.419 72.8 347.819 73.7 349.819 75.1C351.919 76.4 353.619 78.1999 354.919 80.2999C356.319 82.3999 357.119 85 357.519 88H345.019C344.419 85.1 343.119 83.2 341.119 82.2C339.019 81.2 336.719 80.7 334.019 80.7C333.219 80.7 332.119 80.7999 331.019 80.8999C329.819 81.0999 328.819 81.3 327.719 81.7C326.719 82.1 325.819 82.6999 325.119 83.3999C324.419 84.0999 324.019 85.0999 324.019 86.2999C324.019 87.7999 324.519 88.8999 325.519 89.7999C326.519 90.6999 327.819 91.4 329.519 92.1C331.119 92.7 333.019 93.2 335.119 93.6C337.219 94 339.419 94.5 341.619 95C343.819 95.5 345.919 96.0999 348.019 96.7999C350.119 97.4999 352.019 98.4 353.619 99.7C355.219 100.9 356.619 102.4 357.619 104.2C358.619 106 359.119 108.3 359.119 110.9C359.119 114.1 358.419 116.8 356.919 119.1C355.419 121.3 353.519 123.2 351.219 124.6C348.919 126 346.219 127 343.419 127.7C340.519 128.3 337.719 128.7 334.919 128.7C331.519 128.7 328.319 128.3 325.419 127.5C322.519 126.7 319.919 125.5 317.819 124C315.719 122.4 314.019 120.5 312.819 118.1C311.619 115.8 310.919 113 310.819 109.7H322.919V109.8H323.019ZM362.519 72.8999H371.619V56.4999H383.619V72.7999H394.419V81.7H383.619V110.7C383.619 112 383.719 113 383.819 114C383.919 114.9 384.219 115.7 384.519 116.3C384.919 116.9 385.519 117.4 386.219 117.7C387.019 118 388.019 118.2 389.419 118.2C390.219 118.2 391.119 118.2 391.919 118.1C392.719 118 393.619 117.9 394.419 117.7V127C393.119 127.2 391.819 127.3 390.519 127.4C389.219 127.6 388.019 127.6 386.619 127.6C383.419 127.6 380.919 127.3 379.019 126.7C377.119 126.1 375.619 125.2 374.519 124.1C373.419 122.9 372.719 121.5 372.319 119.8C371.919 118.1 371.719 116 371.619 113.8V81.7999H362.519V72.7V72.8999ZM402.819 72.8999H414.119V80.2999H414.319C416.019 77.0999 418.319 74.8999 421.319 73.4999C424.319 72.0999 427.519 71.3999 431.119 71.3999C435.419 71.3999 439.119 72.1 442.319 73.7C445.519 75.2 448.119 77.1999 450.219 79.8999C452.319 82.4999 453.919 85.6 454.919 89.1C455.919 92.6 456.519 96.3999 456.519 100.3C456.519 104 456.019 107.5 455.119 110.9C454.119 114.3 452.719 117.4 450.819 120C448.919 122.6 446.519 124.7 443.519 126.3C440.519 127.9 437.119 128.7 433.119 128.7C431.419 128.7 429.619 128.5 427.919 128.2C426.219 127.9 424.519 127.4 422.919 126.7C421.319 126 419.819 125.1 418.519 124C417.119 122.9 416.019 121.6 415.119 120.2H414.919V147.3H402.919V72.8999H402.819ZM444.719 100.1C444.719 97.7 444.419 95.3 443.719 93C443.119 90.7 442.119 88.6999 440.819 86.8999C439.519 85.0999 437.919 83.7 436.119 82.6C434.219 81.5 432.019 80.9999 429.619 80.9999C424.619 80.9999 420.819 82.7 418.219 86.2C415.719 89.7 414.419 94.4 414.419 100.2C414.419 103 414.719 105.5 415.419 107.8C416.119 110.1 417.019 112.1 418.419 113.8C419.719 115.5 421.319 116.8 423.219 117.8C425.119 118.8 427.219 119.3 429.719 119.3C432.519 119.3 434.719 118.7 436.619 117.6C438.519 116.5 440.019 115 441.319 113.3C442.519 111.5 443.419 109.5 443.919 107.2C444.419 104.8 444.719 102.5 444.719 100.1ZM465.819 52.2H477.819V63.4999H465.819V52.2ZM465.819 72.8999H477.819V127.2H465.819V72.8999ZM488.519 52.2H500.519V127.2H488.519V52.2ZM537.119 128.7C532.819 128.7 528.919 128 525.519 126.5C522.119 125 519.319 123.1 516.919 120.6C514.619 118.1 512.819 115 511.619 111.5C510.419 108 509.719 104.1 509.719 100C509.719 95.9 510.319 92.1 511.619 88.6C512.819 85.1 514.619 82.0999 516.919 79.4999C519.219 76.9999 522.119 75 525.519 73.6C528.919 72.2 532.819 71.3999 537.119 71.3999C541.419 71.3999 545.319 72.1 548.719 73.6C552.119 75 554.919 76.9999 557.319 79.4999C559.619 81.9999 561.419 85.1 562.619 88.6C563.819 92.1 564.519 95.9 564.519 100C564.519 104.2 563.919 108 562.619 111.5C561.319 115 559.619 118 557.319 120.6C555.019 123.1 552.119 125.1 548.719 126.5C545.319 127.9 541.519 128.7 537.119 128.7ZM537.119 119.2C539.719 119.2 542.119 118.6 544.019 117.5C546.019 116.4 547.519 114.9 548.819 113.1C550.119 111.3 551.019 109.2 551.619 107C552.219 104.7 552.519 102.4 552.519 100C552.519 97.7 552.219 95.4 551.619 93.1C551.019 90.8 550.119 88.8 548.819 87C547.519 85.2 545.919 83.8 544.019 82.7C542.019 81.6 539.719 80.9999 537.119 80.9999C534.519 80.9999 532.119 81.6 530.219 82.7C528.219 83.8 526.719 85.3 525.419 87C524.119 88.8 523.219 90.8 522.619 93.1C522.019 95.4 521.719 97.7 521.719 100C521.719 102.4 522.019 104.7 522.619 107C523.219 109.3 524.119 111.3 525.419 113.1C526.719 114.9 528.319 116.4 530.219 117.5C532.219 118.7 534.519 119.2 537.119 119.2ZM568.119 72.8999H577.219V56.4999H589.219V72.7999H600.019V81.7H589.219V110.7C589.219 112 589.319 113 589.419 114C589.519 114.9 589.819 115.7 590.119 116.3C590.519 116.9 591.119 117.4 591.819 117.7C592.619 118 593.619 118.2 595.019 118.2C595.819 118.2 596.719 118.2 597.519 118.1C598.319 118 599.219 117.9 600.019 117.7V127C598.719 127.2 597.419 127.3 596.119 127.4C594.819 127.6 593.619 127.6 592.219 127.6C589.019 127.6 586.519 127.3 584.619 126.7C582.719 126.1 581.219 125.2 580.119 124.1C579.019 122.9 578.319 121.5 577.919 119.8C577.519 118.1 577.319 116 577.219 113.8V81.7999H568.119V72.7V72.8999Z" fill="black"/>
<path d="M143.72 52.2H88.8196L71.9196 0L54.9196 52.2L0.0195312 52.1L44.4196 84.4L27.4195 136.6L71.8196 104.3L116.22 136.6L99.3196 84.4L143.72 52.2Z" fill="#00B67A"/>
<path d="M103.12 96.1999L99.3199 84.3999L71.9199 104.3L103.12 96.1999Z" fill="#005128"/>
</svg>
